{"title":"Cloud Atlas-720p MP4 AAC x264 BRRip 2012-CC","uid":8272706,"size":3830848728,"categoryP":"video","categoryS":"hd___movies","magnet":"?xt=urn:btih:dc6226d7228a2630ae1ec475fc7a6c779b2b13e0&amp;dn=Cloud+Atlas-720p+MP4+AAC+x264+BRRip+2012-CC&amp;tr=udp%3A%2F%2Ftracker.openbittorrent.com%3A80&amp;tr=udp%3A%2F%2Fopen.demonii.com%3A1337&amp;tr=udp%3A%2F%2Ftracker.coppersurfer.tk%3A6969&amp;tr=udp%3A%2F%2Fexodus.desync.com%3A6969","seeders":1,"leechers":0,"uploader":"Caveman44","files":-1,"time":1363642676,"description":" &lt;a href=&quot;http://www.imdb.com/title/tt1371111/&quot; rel=&quot;nofollow&quot; target=&quot;_NEW&quot;&gt;http://www.imdb.com/title/tt1371111/&lt;/a&gt;\n\nSource: Cloud Atlas 2012 720p BluRay x264 DTS-PTpOWeR Thanks a lot!\n\nSubs: Bulgarian, Dutch, English, Servian.\n\nSample and Screens included.\n\nGeneral\nComplete name                            : Cloud Atlas-720p MP4 AAC x264 BRRip 2012-CC.mp4\nFormat                                   : MPEG-4\nFormat profile                           : Base Media\nCodec ID                                 : isom\nFile size                                : 3.53 GiB\nDuration                                 : 2h 52mn\nOverall bit rate mode                    : Variable\nOverall bit rate                         : 2 929 Kbps\nEncoded date                             : UTC 2013-03-17 06:00:56\n\nVideo\nID                                       : 1\nFormat                                   : AVC\nFormat/Info                              : Advanced Video Codec\nFormat profile                           : &lt;a class=&quot;__cf_email__&quot; href=&quot;/cdn-cgi/l/email-protection&quot; data-cfemail=&quot;7d35141a153d3149534c&quot;&gt;[email&amp;#160;protected]&lt;/a&gt;&lt;script cf-hash='f9e31' type=&quot;text/javascript&quot;&gt;\n/* &lt;![CDATA[ */!function(){try{var t=&quot;currentScript&quot;in document?document.currentScript:function(){for(var t=document.getElementsByTagName(&quot;script&quot;),e=t.length;e--;)if(t[e].getAttribute(&quot;cf-hash&quot;))return t[e]}();if(t&amp;&amp;t.previousSibling){var e,r,n,i,c=t.previousSibling,a=c.getAttribute(&quot;data-cfemail&quot;);if(a){for(e=&quot;&quot;,r=parseInt(a.substr(0,2),16),n=2;a.length-n;n+=2)i=parseInt(a.substr(n,2),16)^r,e+=String.fromCharCode(i);e=document.createTextNode(e),c.parentNode.replaceChild(e,c)}}}catch(u){}}();/* ]]&gt; */&lt;/script&gt;\nFormat settings, CABAC                   : Yes\nFormat settings, ReFrames                : 5 frames\nCodec ID                                 : avc1\nCodec ID/Info                            : Advanced Video Coding\nDuration                                 : 2h 52mn\nBit rate                                 : 2 564 Kbps\nMaximum bit rate                         : 14.1 Mbps\nWidth                                    : 1 280 pixels\nHeight                                   : 544 pixels\nDisplay aspect ratio                     : 2.35:1\nFrame rate mode                          : Variable\nFrame rate                               : 23.976 fps\nMinimum frame rate                       : 11.905 fps\nMaximum frame rate                       : 24.390 fps\nColor space                              : YUV\nChroma subsampling                       : 4:2:0\nBit depth                                : 8 bits\nScan type                                : Progressive\nBits/(Pixel*Frame)                       : 0.154\nStream size                              : 3.06 GiB (87%)\nWriting library                          : x264 core 112\n\nAudio\nID                                       : 2\nFormat                                   : AAC\nFormat/Info                              : Advanced Audio Codec\nFormat profile                           : LC\nCodec ID                                 : 40\nDuration                                 : 2h 52mn\nBit rate mode                            : Variable\nBit rate                                 : 384 Kbps\nMaximum bit rate                         : 635 Kbps\nChannel(s)                               : 6 channels\nChannel positions                        : Front: L C R, Side: L R, LFE\nSampling rate                            : 48.0 KHz\nCompression mode                         : Lossy\nDelay relative to video                  : 125ms\nStream size                              : 473 MiB (13%)\nLanguage                                 : English\n\nEnjoy...\n\nComing soon: Army of Shadows, Tetro, The Insider and more.\n","torrent":{"xt":"urn:btih:dc6226d7228a2630ae1ec475fc7a6c779b2b13e0","amp;dn":"Cloud+Atlas-720p+MP4+AAC+x264+BRRip+2012-CC","amp;tr":["udp%3A%2F%2Ftracker.openbittorrent.com%3A80","udp%3A%2F%2Fopen.demonii.com%3A1337","udp%3A%2F%2Ftracker.coppersurfer.tk%3A6969","udp%3A%2F%2Fexodus.desync.com%3A6969"],"infoHash":"dc6226d7228a2630ae1ec475fc7a6c779b2b13e0","infoHashBuffer":{"type":"Buffer","data":[220,98,38,215,34,138,38,48,174,30,196,117,252,122,108,119,155,43,19,224]},"announce":[],"urlList":[]}}